<?xml version="1.0" encoding="UTF-8"?>
<svg xmlns="http://www.w3.org/2000/svg" xmlns:xlink="http://www.w3.org/1999/xlink" width="59px" height="36px" viewBox="0 0 59 36" version="1.1">
<g id="surface1">
<path style=" stroke:none;fill-rule:nonzero;fill:rgb(0%,32.54902%,62.352941%);fill-opacity:1;" d="M 9.148438 9.867188 C 8.6875 9.871094 8.242188 9.746094 7.902344 9.519531 C 7.5625 9.292969 7.355469 8.980469 7.324219 8.648438 C 7.292969 8.316406 7.4375 7.984375 7.734375 7.726562 C 8.027344 7.46875 8.445312 7.300781 8.902344 7.261719 L 21.929688 5.980469 C 22.167969 5.957031 22.40625 5.96875 22.636719 6.011719 C 22.867188 6.054688 23.082031 6.132812 23.273438 6.234375 C 23.460938 6.339844 23.621094 6.46875 23.742188 6.621094 C 23.859375 6.769531 23.941406 6.933594 23.972656 7.101562 C 24.003906 7.273438 23.988281 7.445312 23.929688 7.613281 C 23.871094 7.78125 23.765625 7.9375 23.621094 8.074219 C 23.476562 8.210938 23.296875 8.324219 23.089844 8.414062 C 22.886719 8.5 22.660156 8.554688 22.421875 8.578125 L 9.394531 9.859375 Z M 9.148438 9.867188 "/>
<path style=" stroke:none;fill-rule:nonzero;fill:rgb(0%,32.54902%,62.352941%);fill-opacity:1;" d="M 26.054688 30.484375 L 13.460938 29.785156 C 12.992188 29.753906 12.558594 29.59375 12.253906 29.332031 C 11.949219 29.074219 11.792969 28.738281 11.828125 28.402344 C 11.867188 28.0625 12.089844 27.75 12.449219 27.53125 C 12.808594 27.316406 13.269531 27.207031 13.738281 27.238281 L 26.257812 27.941406 C 26.703125 27.980469 27.109375 28.140625 27.394531 28.390625 C 27.679688 28.640625 27.824219 28.957031 27.796875 29.28125 C 27.773438 29.605469 27.578125 29.90625 27.253906 30.132812 C 26.933594 30.355469 26.503906 30.480469 26.054688 30.484375 Z M 26.054688 30.484375 "/>
<path style=" stroke:none;fill-rule:nonzero;fill:rgb(100%,100%,100%);fill-opacity:1;" d="M 54.613281 17.9375 C 54.859375 9.632812 47.058594 2.773438 37.1875 2.621094 C 27.316406 2.464844 19.113281 9.074219 18.867188 17.382812 C 18.621094 25.6875 26.421875 32.546875 36.296875 32.699219 C 46.167969 32.855469 54.367188 26.246094 54.613281 17.9375 Z M 54.613281 17.9375 "/>
<path style=" stroke:none;fill-rule:nonzero;fill:rgb(0%,32.54902%,62.352941%);fill-opacity:1;" d="M 36.839844 2.617188 L 37.796875 2.617188 C 47.65625 3.058594 55.167969 10.140625 54.589844 18.425781 C 54.007812 26.460938 46.078125 32.683594 36.636719 32.683594 L 35.683594 32.683594 C 25.824219 32.246094 18.3125 25.164062 18.890625 16.867188 C 19.457031 8.839844 27.386719 2.617188 36.839844 2.617188 Z M 36.839844 0 C 25.40625 0 15.921875 7.332031 15.273438 16.761719 C 14.589844 26.472656 23.640625 34.800781 35.453125 35.324219 L 36.636719 35.324219 C 48.058594 35.324219 57.542969 27.992188 58.191406 18.5625 C 58.875 8.875 49.824219 0.554688 38.015625 0 Z M 36.839844 0 "/>
<path style=" stroke:none;fill-rule:nonzero;fill:rgb(55.294118%,77.647059%,24.705882%);fill-opacity:1;" d="M 36.566406 21.246094 C 36.117188 21.242188 35.683594 21.121094 35.351562 20.898438 L 30.703125 17.863281 C 30.347656 17.628906 30.132812 17.300781 30.109375 16.953125 C 30.082031 16.605469 30.25 16.265625 30.574219 16.007812 C 30.894531 15.75 31.347656 15.59375 31.828125 15.578125 C 32.308594 15.558594 32.777344 15.679688 33.136719 15.914062 L 36.03125 17.765625 L 40.070312 11.480469 C 40.167969 11.324219 40.308594 11.183594 40.484375 11.066406 C 40.65625 10.949219 40.863281 10.859375 41.085938 10.800781 C 41.3125 10.742188 41.550781 10.714844 41.789062 10.726562 C 42.023438 10.734375 42.257812 10.777344 42.472656 10.851562 C 42.90625 11 43.242188 11.265625 43.402344 11.59375 C 43.566406 11.917969 43.542969 12.277344 43.339844 12.59375 L 38.257812 20.4375 C 38.140625 20.625 37.964844 20.789062 37.742188 20.914062 C 37.523438 21.042969 37.261719 21.128906 36.984375 21.171875 C 36.851562 21.210938 36.710938 21.234375 36.566406 21.246094 Z M 36.566406 21.246094 "/>
<path style=" stroke:none;fill-rule:nonzero;fill:rgb(100%,100%,100%);fill-opacity:1;" d="M 22.539062 26.390625 C 22.445312 26.238281 22.316406 26.105469 22.148438 25.996094 C 21.984375 25.882812 21.789062 25.796875 21.578125 25.742188 C 21.367188 25.683594 21.140625 25.660156 20.914062 25.671875 C 20.691406 25.679688 20.46875 25.71875 20.265625 25.792969 C 19.46875 26.105469 18.949219 26.335938 19.414062 26.988281 L 18.328125 26.988281 L 15.921875 23.59375 L 20.410156 22.890625 L 22.828125 26.285156 Z M 22.539062 26.390625 "/>
<path style=" stroke:none;fill-rule:nonzero;fill:rgb(100%,100%,100%);fill-opacity:1;" d="M 26.027344 24.640625 L 14.605469 24.179688 L 14.390625 12.339844 L 25.824219 12.8125 Z M 26.027344 24.640625 "/>
<path style=" stroke:none;fill-rule:nonzero;fill:rgb(100%,100%,100%);fill-opacity:1;" d="M 0 10.78125 L 31.671875 7.679688 L 23.753906 13.316406 Z M 0 10.78125 "/>
<path style=" stroke:none;fill-rule:nonzero;fill:rgb(100%,100%,100%);fill-opacity:1;" d="M 12.015625 27.101562 L 28.226562 28.074219 L 25.941406 24.515625 L 10.945312 24.429688 Z M 12.015625 27.101562 "/>
<path style=" stroke:none;fill-rule:nonzero;fill:rgb(55.294118%,77.647059%,24.705882%);fill-opacity:1;" d="M 3.125 19.90625 C 2.648438 19.90625 2.1875 19.765625 1.847656 19.519531 C 1.507812 19.273438 1.316406 18.941406 1.316406 18.59375 C 1.316406 18.246094 1.507812 17.914062 1.847656 17.667969 C 2.1875 17.421875 2.648438 17.285156 3.125 17.285156 L 16.15625 17.179688 C 16.632812 17.1875 17.089844 17.324219 17.433594 17.566406 C 17.773438 17.804688 17.976562 18.132812 17.992188 18.480469 C 17.992188 18.824219 17.804688 19.160156 17.46875 19.40625 C 17.132812 19.652344 16.675781 19.792969 16.199219 19.800781 L 3.171875 19.90625 Z M 3.125 19.90625 "/>
<path style=" stroke:none;fill-rule:nonzero;fill:rgb(0%,32.54902%,62.352941%);fill-opacity:1;" d="M 18.6875 23.9375 L 7.730469 23.613281 C 7.539062 23.613281 7.355469 23.558594 7.21875 23.460938 C 7.082031 23.359375 7.007812 23.226562 7.007812 23.089844 C 7.007812 22.949219 7.082031 22.816406 7.21875 22.71875 C 7.355469 22.621094 7.539062 22.566406 7.730469 22.566406 L 18.6875 22.890625 C 18.878906 22.902344 19.054688 22.960938 19.183594 23.0625 C 19.3125 23.164062 19.382812 23.296875 19.382812 23.433594 C 19.375 23.566406 19.300781 23.691406 19.171875 23.785156 C 19.042969 23.878906 18.871094 23.933594 18.6875 23.9375 Z M 18.6875 23.9375 "/>
<path style=" stroke:none;fill-rule:nonzero;fill:rgb(0%,32.54902%,62.352941%);fill-opacity:1;" d="M 6.976562 14.5 C 6.785156 14.5 6.601562 14.445312 6.464844 14.34375 C 6.328125 14.246094 6.253906 14.113281 6.253906 13.976562 C 6.253906 13.835938 6.328125 13.703125 6.464844 13.605469 C 6.601562 13.507812 6.785156 13.453125 6.976562 13.453125 L 17.601562 13 C 17.699219 12.996094 17.792969 13.007812 17.882812 13.027344 C 17.972656 13.050781 18.054688 13.085938 18.128906 13.132812 C 18.199219 13.175781 18.257812 13.234375 18.296875 13.296875 C 18.339844 13.355469 18.363281 13.425781 18.371094 13.492188 C 18.375 13.628906 18.308594 13.765625 18.179688 13.867188 C 18.054688 13.96875 17.878906 14.035156 17.691406 14.046875 L 7.0625 14.5 Z M 6.976562 14.5 "/>
<path style=" stroke:none;fill-rule:nonzero;fill:rgb(67.45098%,85.098039%,96.078431%);fill-opacity:1;" d="M 35.683594 32.683594 C 45.527344 33.113281 53.996094 26.746094 54.589844 18.449219 C 55.183594 10.152344 47.65625 3.078125 37.796875 2.640625 C 37.796875 2.640625 50.578125 4.230469 50.101562 18.125 C 49.625 32.476562 35.683594 32.683594 35.683594 32.683594 Z M 35.683594 32.683594 "/>
<path style=" stroke:none;fill-rule:nonzero;fill:rgb(0%,32.54902%,62.352941%);fill-opacity:1;" d="M 36.089844 31.25 C 35.894531 31.25 35.710938 31.195312 35.578125 31.097656 C 35.441406 31 35.363281 30.863281 35.363281 30.726562 L 35.363281 27.941406 C 35.363281 27.800781 35.441406 27.667969 35.578125 27.570312 C 35.710938 27.472656 35.894531 27.414062 36.089844 27.414062 C 36.28125 27.414062 36.464844 27.472656 36.601562 27.570312 C 36.734375 27.667969 36.8125 27.800781 36.8125 27.941406 L 36.8125 30.726562 C 36.8125 30.863281 36.734375 31 36.601562 31.097656 C 36.464844 31.195312 36.28125 31.25 36.089844 31.25 Z M 36.089844 31.25 "/>
<path style=" stroke:none;fill-rule:nonzero;fill:rgb(0%,32.54902%,62.352941%);fill-opacity:1;" d="M 48.304688 18.785156 C 48.113281 18.785156 47.929688 18.726562 47.792969 18.628906 C 47.660156 18.53125 47.582031 18.398438 47.582031 18.257812 C 47.582031 18.121094 47.660156 17.988281 47.792969 17.890625 C 47.929688 17.792969 48.113281 17.734375 48.304688 17.734375 L 52.519531 17.734375 C 52.710938 17.734375 52.894531 17.792969 53.03125 17.890625 C 53.164062 17.988281 53.242188 18.121094 53.242188 18.257812 C 53.246094 18.328125 53.226562 18.394531 53.191406 18.460938 C 53.15625 18.523438 53.105469 18.582031 53.039062 18.628906 C 52.972656 18.679688 52.894531 18.71875 52.808594 18.742188 C 52.71875 18.769531 52.628906 18.785156 52.53125 18.785156 Z M 48.304688 18.785156 "/>
<path style=" stroke:none;fill-rule:nonzero;fill:rgb(0%,32.54902%,62.352941%);fill-opacity:1;" d="M 36.101562 8.015625 C 36.007812 8.015625 35.914062 8 35.828125 7.972656 C 35.742188 7.949219 35.664062 7.910156 35.597656 7.859375 C 35.53125 7.8125 35.476562 7.753906 35.441406 7.691406 C 35.410156 7.625 35.390625 7.558594 35.394531 7.492188 L 35.394531 4.609375 C 35.394531 4.46875 35.46875 4.335938 35.605469 4.238281 C 35.742188 4.140625 35.925781 4.085938 36.117188 4.085938 C 36.214844 4.082031 36.308594 4.09375 36.398438 4.121094 C 36.488281 4.144531 36.570312 4.183594 36.636719 4.234375 C 36.707031 4.28125 36.757812 4.339844 36.792969 4.40625 C 36.828125 4.46875 36.84375 4.539062 36.839844 4.609375 L 36.839844 7.492188 C 36.835938 7.628906 36.757812 7.761719 36.621094 7.863281 C 36.480469 7.960938 36.296875 8.015625 36.101562 8.015625 Z M 36.101562 8.015625 "/>
<path style=" stroke:none;fill-rule:nonzero;fill:rgb(0%,32.54902%,62.352941%);fill-opacity:1;" d="M 21.871094 18.972656 C 21.679688 18.972656 21.496094 18.917969 21.359375 18.820312 C 21.226562 18.71875 21.148438 18.585938 21.148438 18.449219 C 21.148438 18.308594 21.226562 18.175781 21.359375 18.078125 C 21.496094 17.980469 21.679688 17.925781 21.871094 17.925781 L 26.113281 17.925781 C 26.210938 17.921875 26.304688 17.933594 26.390625 17.960938 C 26.480469 17.984375 26.5625 18.023438 26.628906 18.070312 C 26.699219 18.117188 26.753906 18.175781 26.792969 18.238281 C 26.832031 18.300781 26.851562 18.367188 26.851562 18.4375 C 26.851562 18.578125 26.777344 18.710938 26.640625 18.8125 C 26.507812 18.910156 26.320312 18.96875 26.128906 18.972656 Z M 21.871094 18.972656 "/>
</g>
</svg>
