<?xml version="1.0" encoding="UTF-8"?>
<svg xmlns="http://www.w3.org/2000/svg" xmlns:xlink="http://www.w3.org/1999/xlink" width="59px" height="36px" viewBox="0 0 59 36" version="1.1">
<g id="surface1">
<path style=" stroke:none;fill-rule:nonzero;fill:rgb(0%,32.54902%,62.352941%);fill-opacity:1;" d="M 53.289062 35.996094 C 53.027344 36.007812 52.761719 36.007812 52.496094 35.996094 L 27.761719 34.015625 C 26.351562 33.875 25.0625 33.414062 24.125 32.714844 C 23.1875 32.015625 22.664062 31.125 22.640625 30.199219 L 22.640625 24.628906 C 22.640625 24.332031 22.824219 24.046875 23.148438 23.835938 C 23.472656 23.625 23.914062 23.503906 24.375 23.503906 C 24.835938 23.503906 25.277344 23.625 25.601562 23.835938 C 25.925781 24.046875 26.109375 24.332031 26.109375 24.628906 L 26.109375 30.199219 C 26.128906 30.582031 26.347656 30.949219 26.734375 31.238281 C 27.121094 31.527344 27.652344 31.71875 28.234375 31.785156 L 53.023438 33.765625 C 53.136719 33.773438 53.246094 33.773438 53.359375 33.765625 C 53.601562 33.765625 53.839844 33.738281 54.066406 33.679688 C 54.289062 33.617188 54.492188 33.53125 54.664062 33.417969 C 54.832031 33.308594 54.964844 33.171875 55.054688 33.027344 C 55.144531 32.882812 55.183594 32.726562 55.175781 32.566406 L 55.175781 7.371094 C 55.253906 6.894531 55.042969 6.417969 54.59375 6.039062 C 54.398438 5.945312 54.171875 5.878906 53.933594 5.84375 C 53.691406 5.808594 53.445312 5.808594 53.207031 5.839844 L 52.761719 5.839844 L 31.691406 8.414062 C 31.238281 8.46875 30.769531 8.40625 30.390625 8.238281 C 30.007812 8.066406 29.75 7.808594 29.664062 7.515625 C 29.578125 7.222656 29.675781 6.917969 29.9375 6.671875 C 30.199219 6.425781 30.597656 6.253906 31.050781 6.199219 L 52.121094 3.644531 C 52.328125 3.621094 52.539062 3.605469 52.746094 3.601562 C 53.488281 3.523438 54.242188 3.554688 54.960938 3.6875 C 55.683594 3.820312 56.347656 4.054688 56.910156 4.375 C 57.492188 4.769531 57.941406 5.238281 58.230469 5.753906 C 58.515625 6.269531 58.636719 6.816406 58.578125 7.363281 L 58.578125 32.558594 C 58.585938 33.011719 58.453125 33.460938 58.191406 33.878906 C 57.925781 34.296875 57.539062 34.675781 57.046875 34.996094 C 56.554688 35.316406 55.96875 35.570312 55.324219 35.742188 C 54.675781 35.914062 53.984375 36 53.289062 35.996094 Z M 53.289062 35.996094 "/>
<path style=" stroke:none;fill-rule:nonzero;fill:rgb(67.45098%,85.098039%,96.078431%);fill-opacity:1;" d="M 38.171875 23.59375 L 49.734375 23.59375 L 49.734375 30.34375 L 38.171875 29.859375 Z M 38.171875 23.59375 "/>
<path style=" stroke:none;fill-rule:nonzero;fill:rgb(67.45098%,85.098039%,96.078431%);fill-opacity:1;" d="M 49.734375 30.8125 L 38.160156 30.335938 C 37.972656 30.328125 37.800781 30.273438 37.675781 30.183594 C 37.546875 30.09375 37.476562 29.980469 37.480469 29.859375 L 37.480469 23.558594 C 37.480469 23.433594 37.554688 23.316406 37.691406 23.230469 C 37.824219 23.140625 38.007812 23.089844 38.199219 23.089844 L 49.777344 23.089844 C 49.875 23.09375 49.96875 23.105469 50.054688 23.128906 C 50.144531 23.15625 50.222656 23.191406 50.289062 23.234375 C 50.359375 23.277344 50.417969 23.328125 50.453125 23.386719 C 50.492188 23.445312 50.511719 23.507812 50.511719 23.570312 L 50.511719 30.316406 C 50.511719 30.382812 50.492188 30.445312 50.449219 30.503906 C 50.410156 30.5625 50.351562 30.617188 50.277344 30.660156 C 50.207031 30.707031 50.125 30.746094 50.03125 30.773438 C 49.9375 30.800781 49.835938 30.8125 49.734375 30.8125 Z M 38.867188 29.417969 L 48.984375 29.839844 L 48.984375 24.0625 L 38.867188 24.0625 Z M 38.867188 29.417969 "/>
<path style=" stroke:none;fill-rule:nonzero;fill:rgb(0%,32.54902%,62.352941%);fill-opacity:1;" d="M 30.398438 13.101562 C 30.234375 13.101562 30.074219 13.0625 29.945312 12.996094 C 29.820312 12.925781 29.734375 12.832031 29.707031 12.726562 C 29.679688 12.605469 29.726562 12.484375 29.835938 12.386719 C 29.945312 12.292969 30.105469 12.226562 30.289062 12.203125 L 49.972656 10.203125 C 50.15625 10.1875 50.34375 10.21875 50.492188 10.289062 C 50.640625 10.359375 50.742188 10.46875 50.769531 10.585938 C 50.796875 10.707031 50.75 10.828125 50.640625 10.925781 C 50.527344 11.023438 50.363281 11.085938 50.179688 11.105469 L 30.539062 13.09375 Z M 30.398438 13.101562 "/>
<path style=" stroke:none;fill-rule:nonzero;fill:rgb(0%,32.54902%,62.352941%);fill-opacity:1;" d="M 30.453125 16.792969 C 30.285156 16.792969 30.121094 16.75 29.996094 16.679688 C 29.867188 16.605469 29.785156 16.503906 29.761719 16.394531 C 29.75 16.335938 29.757812 16.277344 29.78125 16.222656 C 29.804688 16.164062 29.847656 16.109375 29.90625 16.066406 C 29.960938 16.019531 30.03125 15.980469 30.113281 15.953125 C 30.191406 15.925781 30.28125 15.90625 30.371094 15.902344 L 49.972656 14.398438 C 50.0625 14.390625 50.152344 14.394531 50.242188 14.410156 C 50.328125 14.425781 50.410156 14.453125 50.484375 14.492188 C 50.554688 14.527344 50.613281 14.574219 50.65625 14.625 C 50.699219 14.679688 50.726562 14.734375 50.734375 14.792969 C 50.753906 14.914062 50.699219 15.03125 50.585938 15.125 C 50.472656 15.214844 50.304688 15.277344 50.125 15.289062 L 30.539062 16.792969 Z M 30.453125 16.792969 "/>
<path style=" stroke:none;fill-rule:nonzero;fill:rgb(0%,32.54902%,62.352941%);fill-opacity:1;" d="M 30.453125 20.410156 C 30.269531 20.410156 30.09375 20.363281 29.964844 20.277344 C 29.832031 20.195312 29.761719 20.078125 29.761719 19.960938 C 29.761719 19.839844 29.832031 19.726562 29.964844 19.640625 C 30.09375 19.558594 30.269531 19.511719 30.453125 19.511719 L 49.972656 18.78125 C 50.15625 18.78125 50.332031 18.828125 50.460938 18.914062 C 50.59375 18.996094 50.664062 19.113281 50.664062 19.230469 C 50.664062 19.351562 50.59375 19.464844 50.460938 19.550781 C 50.332031 19.632812 50.15625 19.679688 49.972656 19.679688 L 30.539062 20.410156 Z M 30.453125 20.410156 "/>
<path style=" stroke:none;fill-rule:nonzero;fill:rgb(55.294118%,77.647059%,24.705882%);fill-opacity:1;" d="M 24.761719 17.097656 C 25.1875 17.09375 25.59375 16.980469 25.894531 16.789062 C 26.195312 16.59375 26.367188 16.328125 26.375 16.054688 L 26.375 1.042969 C 26.371094 0.769531 26.199219 0.503906 25.898438 0.308594 C 25.597656 0.113281 25.191406 0.00390625 24.761719 0 L 1.625 0.0703125 C 1.191406 0.078125 0.78125 0.191406 0.480469 0.390625 C 0.175781 0.585938 0.00390625 0.855469 0 1.132812 L 0 16.054688 C 0.0078125 16.332031 0.179688 16.59375 0.484375 16.789062 C 0.789062 16.984375 1.195312 17.097656 1.625 17.097656 L 10.800781 17.097656 C 11.855469 17.125 12.890625 17.296875 13.839844 17.601562 L 24.570312 21.425781 C 25.347656 21.707031 25.664062 21.507812 25.277344 20.984375 L 23.097656 18.050781 C 22.992188 17.953125 22.933594 17.839844 22.929688 17.71875 C 22.925781 17.597656 22.976562 17.480469 23.070312 17.378906 C 23.167969 17.277344 23.3125 17.199219 23.476562 17.148438 C 23.644531 17.097656 23.832031 17.082031 24.015625 17.097656 Z M 24.761719 17.097656 "/>
<path style=" stroke:none;fill-rule:nonzero;fill:rgb(100%,100%,100%);fill-opacity:1;" d="M 13.132812 3.492188 C 11.542969 3.492188 10.019531 3.90625 8.894531 4.632812 C 7.769531 5.363281 7.136719 6.347656 7.132812 7.378906 C 7.132812 10.078125 12.507812 13.355469 12.6875 13.515625 C 12.738281 13.554688 12.800781 13.582031 12.871094 13.601562 C 12.9375 13.621094 13.011719 13.632812 13.089844 13.632812 C 13.164062 13.632812 13.242188 13.621094 13.308594 13.601562 C 13.378906 13.582031 13.441406 13.554688 13.492188 13.515625 C 13.726562 13.355469 19.042969 10.042969 19.042969 7.378906 C 19.042969 6.359375 18.425781 5.375 17.316406 4.648438 C 16.210938 3.921875 14.707031 3.503906 13.132812 3.492188 Z M 13.132812 9.097656 C 12.605469 9.097656 12.09375 8.996094 11.660156 8.808594 C 11.222656 8.621094 10.882812 8.351562 10.683594 8.035156 C 10.480469 7.722656 10.429688 7.378906 10.53125 7.042969 C 10.632812 6.710938 10.886719 6.402344 11.257812 6.164062 C 11.628906 5.921875 12.101562 5.761719 12.613281 5.695312 C 13.128906 5.628906 13.660156 5.660156 14.144531 5.792969 C 14.628906 5.921875 15.042969 6.140625 15.335938 6.425781 C 15.628906 6.707031 15.78125 7.039062 15.78125 7.378906 C 15.777344 7.835938 15.5 8.269531 15.003906 8.59375 C 14.503906 8.914062 13.832031 9.09375 13.132812 9.097656 Z M 13.132812 9.097656 "/>
</g>
</svg>
