<?xml version="1.0" encoding="UTF-8"?>
<svg xmlns="http://www.w3.org/2000/svg" xmlns:xlink="http://www.w3.org/1999/xlink" width="59px" height="36px" viewBox="0 0 59 36" version="1.1">
<g id="surface1">
<path style=" stroke:none;fill-rule:nonzero;fill:rgb(100%,100%,100%);fill-opacity:1;" d="M 5.804688 33.292969 L 19.914062 28.878906 L 31.695312 27.511719 C 31.695312 27.511719 34.082031 22.957031 33.140625 22.378906 C 32.195312 21.800781 26.5625 18.394531 25.46875 18.042969 C 24.375 17.691406 13.914062 16.355469 13.914062 16.355469 C 12.328125 17.484375 10.644531 18.46875 8.886719 19.300781 C 7.402344 19.777344 -1.789062 33.15625 5.804688 33.292969 Z M 5.804688 33.292969 "/>
<path style=" stroke:none;fill-rule:nonzero;fill:rgb(100%,100%,100%);fill-opacity:1;" d="M 41.488281 21.222656 C 41.488281 21.222656 35.390625 17.714844 14.859375 28.152344 L 8.570312 30.1875 C 8.570312 30.1875 4.109375 31.859375 3.542969 27.433594 C 3.140625 24.066406 0.472656 10.546875 17.195312 5.832031 C 21.183594 4.652344 25.359375 4.261719 29.492188 4.675781 C 35.203125 5.492188 39.640625 10.851562 41.488281 21.222656 Z M 41.488281 21.222656 "/>
<path style=" stroke:none;fill-rule:nonzero;fill:rgb(100%,100%,100%);fill-opacity:1;" d="M 14.859375 28.152344 C 14.859375 28.152344 19.019531 31.921875 27.066406 32.539062 C 34.046875 33.105469 35.867188 29.28125 41.238281 27.246094 C 46.90625 25.109375 47.835938 24.820312 55.394531 26.152344 L 41.488281 21.222656 "/>
<path style=" stroke:none;fill-rule:nonzero;fill:rgb(0%,32.54902%,62.352941%);fill-opacity:1;" d="M 21.070312 2.890625 C 21.484375 4.777344 20.265625 3.683594 18.804688 4.398438 C 17.070312 5.253906 14.621094 6.25 14.21875 4.398438 C 14.097656 3.941406 14.070312 3.464844 14.140625 2.996094 C 14.210938 2.523438 14.371094 2.074219 14.621094 1.671875 C 14.871094 1.265625 15.195312 0.917969 15.585938 0.644531 C 15.972656 0.371094 16.410156 0.175781 16.875 0.078125 C 17.335938 -0.0195312 17.816406 -0.0273438 18.28125 0.0664062 C 18.746094 0.15625 19.1875 0.339844 19.582031 0.605469 C 19.972656 0.871094 20.308594 1.214844 20.5625 1.617188 C 20.820312 2.015625 20.992188 2.460938 21.070312 2.929688 Z M 21.070312 2.890625 "/>
<path style=" stroke:none;fill-rule:nonzero;fill:rgb(67.45098%,85.098039%,96.078431%);fill-opacity:1;" d="M 14.859375 28.152344 C 8.105469 12.433594 17.195312 5.847656 17.195312 5.847656 C 17.195312 5.847656 12.621094 5.847656 10.671875 6.714844 C 8.722656 7.582031 0.171875 16.859375 0.988281 22.367188 C 1.808594 27.875 -0.00390625 32.804688 3.46875 32.601562 C 6.9375 32.402344 14.859375 28.152344 14.859375 28.152344 Z M 14.859375 28.152344 "/>
<path style=" stroke:none;fill-rule:nonzero;fill:rgb(0%,32.54902%,62.352941%);fill-opacity:1;" d="M 32.851562 11.667969 C 32.710938 11.667969 32.574219 11.621094 32.464844 11.535156 C 32.355469 11.449219 32.277344 11.324219 32.246094 11.191406 C 30.6875 4.539062 26.402344 4.414062 26.261719 4.414062 C 26.09375 4.414062 25.9375 4.347656 25.816406 4.230469 C 25.699219 4.109375 25.632812 3.949219 25.632812 3.785156 C 25.632812 3.617188 25.699219 3.457031 25.816406 3.339844 C 25.9375 3.222656 26.09375 3.15625 26.261719 3.15625 C 26.476562 3.15625 31.679688 3.242188 33.464844 10.902344 C 33.503906 11.0625 33.476562 11.230469 33.390625 11.375 C 33.300781 11.515625 33.164062 11.617188 33 11.65625 Z M 32.851562 11.667969 "/>
<path style=" stroke:none;fill-rule:nonzero;fill:rgb(0%,32.54902%,62.352941%);fill-opacity:1;" d="M 14.355469 29.683594 C 14.238281 29.6875 14.121094 29.65625 14.019531 29.59375 C 13.917969 29.53125 13.839844 29.441406 13.789062 29.332031 C 13.753906 29.257812 13.730469 29.179688 13.726562 29.09375 C 13.722656 29.011719 13.730469 28.929688 13.757812 28.851562 C 13.785156 28.773438 13.828125 28.703125 13.882812 28.640625 C 13.9375 28.578125 14.003906 28.527344 14.078125 28.492188 C 36.183594 17.964844 43.386719 20.46875 43.675781 20.582031 C 43.8125 20.652344 43.921875 20.769531 43.976562 20.914062 C 44.03125 21.058594 44.03125 21.21875 43.976562 21.363281 C 43.925781 21.507812 43.816406 21.628906 43.679688 21.699219 C 43.542969 21.769531 43.386719 21.789062 43.234375 21.75 C 43.136719 21.75 36.019531 19.4375 14.621094 29.621094 C 14.539062 29.667969 14.449219 29.6875 14.355469 29.683594 Z M 14.355469 29.683594 "/>
<path style=" stroke:none;fill-rule:nonzero;fill:rgb(0%,32.54902%,62.352941%);fill-opacity:1;" d="M 26.402344 4.464844 C 27.433594 4.460938 28.46875 4.53125 29.492188 4.675781 C 35.203125 5.492188 39.640625 10.851562 41.488281 21.222656 L 55.433594 26.152344 C 55.683594 26.265625 55.683594 26.742188 55.21875 26.742188 C 55.15625 26.753906 55.09375 26.753906 55.03125 26.742188 C 52.714844 26.144531 50.347656 25.777344 47.964844 25.648438 C 45.652344 25.753906 43.378906 26.304688 41.273438 27.269531 C 36.246094 29.167969 34.347656 32.625 28.449219 32.625 C 28.023438 32.625 27.570312 32.625 27.105469 32.5625 C 19.058594 31.910156 14.894531 28.175781 14.894531 28.175781 L 8.609375 30.214844 C 7.808594 30.539062 6.957031 30.726562 6.09375 30.765625 C 5.8125 30.800781 5.527344 30.777344 5.253906 30.699219 C 4.980469 30.621094 4.722656 30.492188 4.5 30.316406 C 4.277344 30.136719 4.089844 29.917969 3.953125 29.671875 C 3.8125 29.421875 3.726562 29.148438 3.691406 28.867188 C 3.039062 25.496094 0.472656 10.546875 17.195312 5.832031 C 20.1875 4.964844 23.285156 4.503906 26.402344 4.464844 Z M 26.402344 1.371094 C 22.996094 1.414062 19.609375 1.921875 16.34375 2.878906 C 3.832031 6.398438 -1.789062 15.765625 0.5 29.332031 C 0.675781 30.644531 1.339844 31.84375 2.359375 32.6875 C 3.382812 33.53125 4.683594 33.960938 6.007812 33.882812 C 7.257812 33.855469 8.492188 33.605469 9.652344 33.140625 L 14.304688 31.632812 C 18.074219 33.984375 22.367188 35.371094 26.804688 35.667969 C 27.355469 35.667969 27.898438 35.746094 28.414062 35.746094 C 31.976562 35.703125 35.433594 34.527344 38.28125 32.386719 C 39.558594 31.511719 40.921875 30.773438 42.355469 30.1875 C 44.105469 29.363281 45.996094 28.878906 47.925781 28.765625 C 50.085938 28.902344 52.230469 29.246094 54.324219 29.796875 C 54.605469 29.859375 54.894531 29.886719 55.179688 29.886719 C 55.976562 29.886719 56.746094 29.617188 57.367188 29.117188 C 57.984375 28.617188 58.410156 27.917969 58.574219 27.140625 C 58.738281 26.363281 58.628906 25.550781 58.265625 24.84375 C 57.902344 24.136719 57.304688 23.578125 56.578125 23.261719 L 56.386719 23.183594 L 44.140625 18.859375 C 41.222656 5.230469 34.082031 2.160156 29.894531 1.570312 C 28.738281 1.421875 27.570312 1.355469 26.402344 1.371094 Z M 26.402344 1.371094 "/>
<path style=" stroke:none;fill-rule:nonzero;fill:rgb(0%,32.54902%,62.352941%);fill-opacity:1;" d="M 41.488281 13.667969 C 38.886719 13.464844 36.273438 13.558594 33.691406 13.941406 C 33.867188 14.910156 34.109375 16.308594 34.234375 17.5 C 36.523438 17.152344 38.847656 17.054688 41.160156 17.210938 C 41.636719 17.257812 42.113281 17.113281 42.484375 16.808594 C 42.851562 16.503906 43.085938 16.066406 43.136719 15.589844 C 43.171875 15.117188 43.015625 14.648438 42.707031 14.289062 C 42.398438 13.929688 41.960938 13.707031 41.488281 13.667969 Z M 41.488281 13.667969 "/>
<path style=" stroke:none;fill-rule:nonzero;fill:rgb(55.294118%,77.647059%,24.705882%);fill-opacity:1;" d="M 33.691406 13.941406 L 33.628906 13.941406 C 30.472656 14.386719 27.394531 15.261719 24.476562 16.546875 C 24.097656 16.710938 23.789062 17.003906 23.597656 17.371094 C 23.410156 17.738281 23.351562 18.160156 23.4375 18.566406 C 23.523438 18.96875 23.746094 19.332031 24.070312 19.59375 C 24.390625 19.851562 24.792969 19.992188 25.207031 19.992188 C 25.457031 19.992188 25.707031 19.933594 25.933594 19.828125 C 28.550781 18.6875 31.308594 17.910156 34.132812 17.515625 L 34.234375 17.515625 C 34.109375 16.34375 33.867188 14.949219 33.691406 13.941406 Z M 33.691406 13.941406 "/>
</g>
</svg>
